<?xml version="1.0" encoding="UTF-8" standalone="no"?>
<!DOCTYPE svg PUBLIC "-//W3C//DTD SVG 1.1//EN"
 "http://www.w3.org/Graphics/SVG/1.1/DTD/svg11.dtd">
<!-- Generated by graphviz version 2.38.0 (20140413.2041)
 -->
<!-- Title: models_diagram Pages: 1 -->
<svg width="1498pt" height="771pt"
 viewBox="0.00 0.00 1497.50 771.00" xmlns="http://www.w3.org/2000/svg" xmlns:xlink="http://www.w3.org/1999/xlink">
<g id="graph0" class="graph" transform="scale(1 1) rotate(0) translate(4 767)">
<title>models_diagram</title>
<polygon fill="none" stroke="none" points="-4,4 -4,-767 1493.5,-767 1493.5,4 -4,4"/>
<!-- _diagram_info -->
<g id="node1" class="node"><title>_diagram_info</title>
<text text-anchor="start" x="236" y="-748.6" font-family="Times,serif" font-size="13.00">Models diagram</text>
<text text-anchor="start" x="236" y="-734.6" font-family="Times,serif" font-size="13.00">Date: Dec 13 2017 &#45; 06:11</text>
<text text-anchor="start" x="236" y="-720.6" font-family="Times,serif" font-size="13.00">Migration version: 20171212210408</text>
<text text-anchor="start" x="236" y="-706.6" font-family="Times,serif" font-size="13.00">Generated by RailRoady 1.5.3</text>
<text text-anchor="start" x="236" y="-692.6" font-family="Times,serif" font-size="13.00">http://railroady.prestonlee.com</text>
</g>
<!-- CourseClassification -->
<g id="node2" class="node"><title>CourseClassification</title>
<ellipse fill="none" stroke="black" cx="1294" cy="-237" rx="83.6854" ry="18"/>
<text text-anchor="middle" x="1294" y="-233.3" font-family="Times,serif" font-size="14.00">CourseClassification</text>
</g>
<!-- Supports::Course -->
<g id="node3" class="node"><title>Supports::Course</title>
<polygon fill="none" stroke="black" points="742,-742 632,-742 632,-706 742,-706 742,-742"/>
<text text-anchor="middle" x="687" y="-720.3" font-family="Times,serif" font-size="14.00">Supports::Course</text>
</g>
<!-- Supports::ReviewVerification -->
<g id="node4" class="node"><title>Supports::ReviewVerification</title>
<polygon fill="none" stroke="black" points="939.5,-742 760.5,-742 760.5,-706 939.5,-706 939.5,-742"/>
<text text-anchor="middle" x="850" y="-720.3" font-family="Times,serif" font-size="14.00">Supports::ReviewVerification</text>
</g>
<!-- Supports::CenterSearch -->
<g id="node5" class="node"><title>Supports::CenterSearch</title>
<polygon fill="none" stroke="black" points="1102.5,-742 957.5,-742 957.5,-706 1102.5,-706 1102.5,-742"/>
<text text-anchor="middle" x="1030" y="-720.3" font-family="Times,serif" font-size="14.00">Supports::CenterSearch</text>
</g>
<!-- Supports::Center -->
<g id="node6" class="node"><title>Supports::Center</title>
<polygon fill="none" stroke="black" points="1229,-742 1121,-742 1121,-706 1229,-706 1229,-742"/>
<text text-anchor="middle" x="1175" y="-720.3" font-family="Times,serif" font-size="14.00">Supports::Center</text>
</g>
<!-- Supports::Review -->
<g id="node7" class="node"><title>Supports::Review</title>
<polygon fill="none" stroke="black" points="1360.5,-742 1247.5,-742 1247.5,-706 1360.5,-706 1360.5,-742"/>
<text text-anchor="middle" x="1304" y="-720.3" font-family="Times,serif" font-size="14.00">Supports::Review</text>
</g>
<!-- Supports::Branch -->
<g id="node8" class="node"><title>Supports::Branch</title>
<polygon fill="none" stroke="black" points="1489.5,-742 1378.5,-742 1378.5,-706 1489.5,-706 1489.5,-742"/>
<text text-anchor="middle" x="1434" y="-720.3" font-family="Times,serif" font-size="14.00">Supports::Branch</text>
</g>
<!-- CourseCategory -->
<g id="node9" class="node"><title>CourseCategory</title>
<ellipse fill="none" stroke="black" cx="1198" cy="-484" rx="67.6881" ry="18"/>
<text text-anchor="middle" x="1198" y="-480.3" font-family="Times,serif" font-size="14.00">CourseCategory</text>
</g>
<!-- Course -->
<g id="node13" class="node"><title>Course</title>
<ellipse fill="none" stroke="black" cx="1185" cy="-397" rx="35.9954" ry="18"/>
<text text-anchor="middle" x="1185" y="-393.3" font-family="Times,serif" font-size="14.00">Course</text>
</g>
<!-- CourseCategory&#45;&gt;Course -->
<g id="edge3" class="edge"><title>CourseCategory&#45;&gt;Course</title>
<path fill="none" stroke="#a13bc7" d="M1194.13,-457.694C1192.57,-447.512 1190.77,-435.747 1189.19,-425.367"/>
<ellipse fill="none" stroke="#a13bc7" cx="1194.76" cy="-461.845" rx="4.00001" ry="4.00001"/>
<polygon fill="#a13bc7" stroke="#a13bc7" points="1189.14,-425.06 1192.08,-414.495 1188.38,-420.118 1187.63,-415.175 1187.63,-415.175 1187.63,-415.175 1188.38,-420.118 1183.18,-415.856 1189.14,-425.06 1189.14,-425.06"/>
</g>
<!-- CourseSubCategory -->
<g id="node26" class="node"><title>CourseSubCategory</title>
<ellipse fill="none" stroke="black" cx="1294" cy="-310" rx="81.4863" ry="18"/>
<text text-anchor="middle" x="1294" y="-306.3" font-family="Times,serif" font-size="14.00">CourseSubCategory</text>
</g>
<!-- CourseCategory&#45;&gt;CourseSubCategory -->
<g id="edge2" class="edge"><title>CourseCategory&#45;&gt;CourseSubCategory</title>
<path fill="none" stroke="#e786a3" d="M1211.5,-458.818C1229.42,-426.698 1260.97,-370.177 1279.43,-337.112"/>
<ellipse fill="none" stroke="#e786a3" cx="1209.51" cy="-462.386" rx="4.00002" ry="4.00002"/>
<polygon fill="#e786a3" stroke="#e786a3" points="1279.61,-336.784 1288.41,-330.245 1282.05,-332.418 1284.48,-328.052 1284.48,-328.052 1284.48,-328.052 1282.05,-332.418 1280.55,-325.858 1279.61,-336.784 1279.61,-336.784"/>
</g>
<!-- CenterManagement -->
<g id="node10" class="node"><title>CenterManagement</title>
<ellipse fill="none" stroke="black" cx="630" cy="-310" rx="81.4863" ry="18"/>
<text text-anchor="middle" x="630" y="-306.3" font-family="Times,serif" font-size="14.00">CenterManagement</text>
</g>
<!-- UserComment -->
<g id="node11" class="node"><title>UserComment</title>
<ellipse fill="none" stroke="black" cx="925" cy="-18" rx="63.0888" ry="18"/>
<text text-anchor="middle" x="925" y="-14.3" font-family="Times,serif" font-size="14.00">UserComment</text>
</g>
<!-- CenterRequest -->
<g id="node12" class="node"><title>CenterRequest</title>
<ellipse fill="none" stroke="black" cx="1019" cy="-310" rx="62.2891" ry="18"/>
<text text-anchor="middle" x="1019" y="-306.3" font-family="Times,serif" font-size="14.00">CenterRequest</text>
</g>
<!-- Course&#45;&gt;CourseClassification -->
<g id="edge8" class="edge"><title>Course&#45;&gt;CourseClassification</title>
<path fill="none" stroke="#a58e3d" d="M1183.98,-370.821C1184.29,-348.278 1187.88,-315.284 1204,-292 1214.14,-277.347 1229.67,-266.008 1244.99,-257.591"/>
<ellipse fill="none" stroke="#a58e3d" cx="1183.99" cy="-374.907" rx="4" ry="4"/>
<polygon fill="#a58e3d" stroke="#a58e3d" points="1245.06,-257.556 1256.01,-256.967 1249.5,-255.262 1253.95,-252.969 1253.95,-252.969 1253.95,-252.969 1249.5,-255.262 1251.88,-248.97 1245.06,-257.556 1245.06,-257.556"/>
</g>
<!-- Course&#45;&gt;CourseSubCategory -->
<g id="edge9" class="edge"><title>Course&#45;&gt;CourseSubCategory</title>
<path fill="none" stroke="#9d6286" d="M1207.27,-373.121C1216.42,-364.222 1227.36,-354.213 1238,-346 1243.99,-341.376 1250.61,-336.81 1257.15,-332.579"/>
<polygon fill="#9d6286" stroke="#9d6286" points="1207.15,-373.237 1196.88,-377.072 1203.6,-376.754 1200.04,-380.271 1200.04,-380.271 1200.04,-380.271 1203.6,-376.754 1203.21,-383.469 1207.15,-373.237 1207.15,-373.237"/>
<polygon fill="#9d6286" stroke="#9d6286" points="1257.47,-332.376 1268.33,-330.851 1261.7,-329.71 1265.93,-327.044 1265.93,-327.044 1265.93,-327.044 1261.7,-329.71 1263.53,-323.237 1257.47,-332.376 1257.47,-332.376"/>
</g>
<!-- Vote -->
<g id="node14" class="node"><title>Vote</title>
<ellipse fill="none" stroke="black" cx="367" cy="-91" rx="27.8951" ry="18"/>
<text text-anchor="middle" x="367" y="-87.3" font-family="Times,serif" font-size="14.00">Vote</text>
</g>
<!-- CenterComment -->
<g id="node15" class="node"><title>CenterComment</title>
<ellipse fill="none" stroke="black" cx="1095" cy="-18" rx="69.5877" ry="18"/>
<text text-anchor="middle" x="1095" y="-14.3" font-family="Times,serif" font-size="14.00">CenterComment</text>
</g>
<!-- District -->
<g id="node16" class="node"><title>District</title>
<ellipse fill="none" stroke="black" cx="255" cy="-310" rx="37.0935" ry="18"/>
<text text-anchor="middle" x="255" y="-306.3" font-family="Times,serif" font-size="14.00">District</text>
</g>
<!-- Branch -->
<g id="node23" class="node"><title>Branch</title>
<ellipse fill="none" stroke="black" cx="339" cy="-237" rx="36.2938" ry="18"/>
<text text-anchor="middle" x="339" y="-233.3" font-family="Times,serif" font-size="14.00">Branch</text>
</g>
<!-- District&#45;&gt;Branch -->
<g id="edge13" class="edge"><title>District&#45;&gt;Branch</title>
<path fill="none" stroke="#a44c83" d="M279.176,-288.566C289.949,-279.46 302.642,-268.731 313.559,-259.504"/>
<ellipse fill="none" stroke="#a44c83" cx="275.869" cy="-291.361" rx="4.00002" ry="4.00002"/>
<polygon fill="#a44c83" stroke="#a44c83" points="313.862,-259.247 324.404,-256.229 317.681,-256.02 321.499,-252.792 321.499,-252.792 321.499,-252.792 317.681,-256.02 318.595,-249.355 313.862,-259.247 313.862,-259.247"/>
</g>
<!-- City -->
<g id="node17" class="node"><title>City</title>
<ellipse fill="none" stroke="black" cx="315" cy="-397" rx="27" ry="18"/>
<text text-anchor="middle" x="315" y="-393.3" font-family="Times,serif" font-size="14.00">City</text>
</g>
<!-- City&#45;&gt;District -->
<g id="edge15" class="edge"><title>City&#45;&gt;District</title>
<path fill="none" stroke="#679a85" d="M299.223,-373.649C290.972,-361.96 280.854,-347.626 272.379,-335.62"/>
<ellipse fill="none" stroke="#679a85" cx="301.688" cy="-377.142" rx="4.00002" ry="4.00002"/>
<polygon fill="#679a85" stroke="#679a85" points="272.315,-335.53 270.225,-324.765 269.432,-331.445 266.549,-327.361 266.549,-327.361 266.549,-327.361 269.432,-331.445 262.872,-329.956 272.315,-335.53 272.315,-335.53"/>
</g>
<!-- City&#45;&gt;Branch -->
<g id="edge16" class="edge"><title>City&#45;&gt;Branch</title>
<path fill="none" stroke="#f9a933" d="M318.844,-370.692C323.225,-341.85 330.36,-294.883 334.86,-265.254"/>
<ellipse fill="none" stroke="#f9a933" cx="318.215" cy="-374.836" rx="4.00001" ry="4.00001"/>
<polygon fill="#f9a933" stroke="#f9a933" points="334.887,-265.075 340.838,-255.864 335.638,-260.132 336.389,-255.188 336.389,-255.188 336.389,-255.188 335.638,-260.132 331.94,-254.512 334.887,-265.075 334.887,-265.075"/>
</g>
<!-- Notification -->
<g id="node18" class="node"><title>Notification</title>
<ellipse fill="none" stroke="black" cx="477" cy="-310" rx="53.0913" ry="18"/>
<text text-anchor="middle" x="477" y="-306.3" font-family="Times,serif" font-size="14.00">Notification</text>
</g>
<!-- Center -->
<g id="node19" class="node"><title>Center</title>
<ellipse fill="none" stroke="black" cx="543" cy="-484" rx="34.394" ry="18"/>
<text text-anchor="middle" x="543" y="-480.3" font-family="Times,serif" font-size="14.00">Center</text>
</g>
<!-- Center&#45;&gt;CenterManagement -->
<g id="edge19" class="edge"><title>Center&#45;&gt;CenterManagement</title>
<path fill="none" stroke="#6f21d3" d="M552.122,-458.226C562.888,-430.154 582.118,-383.44 604,-346 605.907,-342.736 608.06,-339.414 610.289,-336.181"/>
<ellipse fill="none" stroke="#6f21d3" cx="550.605" cy="-462.228" rx="4.00001" ry="4.00001"/>
<polygon fill="#6f21d3" stroke="#6f21d3" points="610.397,-336.033 619.902,-330.565 613.326,-331.981 616.255,-327.929 616.255,-327.929 616.255,-327.929 613.326,-331.981 612.609,-325.292 610.397,-336.033 610.397,-336.033"/>
</g>
<!-- Center&#45;&gt;Course -->
<g id="edge26" class="edge"><title>Center&#45;&gt;Course</title>
<path fill="none" stroke="#806d64" d="M585.647,-481.197C660.674,-477.621 821.031,-468.166 955,-448 1021.87,-437.934 1098.4,-419.989 1144.15,-408.557"/>
<ellipse fill="none" stroke="#806d64" cx="581.354" cy="-481.398" rx="4" ry="4"/>
<polygon fill="#806d64" stroke="#806d64" points="1144.29,-408.522 1155.09,-410.445 1149.14,-407.302 1153.99,-406.081 1153.99,-406.081 1153.99,-406.081 1149.14,-407.302 1152.89,-401.717 1144.29,-408.522 1144.29,-408.522"/>
</g>
<!-- Center&#45;&gt;City -->
<g id="edge23" class="edge"><title>Center&#45;&gt;City</title>
<path fill="none" stroke="#3b9fa4" d="M504.524,-470.739C486.241,-464.539 464.23,-456.528 445,-448 432.094,-442.277 429.966,-438.586 417,-433 393.766,-422.991 386.924,-423.223 363,-415 358.109,-413.319 352.947,-411.518 347.893,-409.741"/>
<polygon fill="#3b9fa4" stroke="#3b9fa4" points="504.772,-470.822 512.832,-478.257 509.515,-472.405 514.257,-473.989 514.257,-473.989 514.257,-473.989 509.515,-472.405 515.683,-469.721 504.772,-470.822 504.772,-470.822"/>
<polygon fill="#3b9fa4" stroke="#3b9fa4" points="347.835,-409.721 339.907,-402.145 343.121,-408.054 338.407,-406.388 338.407,-406.388 338.407,-406.388 343.121,-408.054 336.907,-410.631 347.835,-409.721 347.835,-409.721"/>
</g>
<!-- Center&#45;&gt;City -->
<g id="edge24" class="edge"><title>Center&#45;&gt;City</title>
<path fill="none" stroke="#df0926" d="M498.204,-483.543C432.91,-483.267 316.473,-478.387 290,-448 282.971,-439.932 286.634,-429.54 293.082,-420.322"/>
<polygon fill="#df0926" stroke="#df0926" points="498.223,-483.543 508.219,-488.051 503.223,-483.547 508.223,-483.551 508.223,-483.551 508.223,-483.551 503.223,-483.547 508.226,-479.051 498.223,-483.543 498.223,-483.543"/>
<polygon fill="#df0926" stroke="#df0926" points="293.284,-420.071 303.063,-415.111 296.422,-416.179 299.56,-412.286 299.56,-412.286 299.56,-412.286 296.422,-416.179 296.057,-409.462 293.284,-420.071 293.284,-420.071"/>
<text text-anchor="middle" x="351.5" y="-436.8" font-family="Times,serif" font-size="14.00">active_branches_cities</text>
</g>
<!-- Center&#45;&gt;Notification -->
<g id="edge28" class="edge"><title>Center&#45;&gt;Notification</title>
<path fill="none" stroke="#b7373d" d="M541.799,-457.594C539.487,-428.867 532.733,-381.483 513,-346 510.635,-341.748 507.591,-337.687 504.275,-333.935"/>
<ellipse fill="none" stroke="#b7373d" cx="542.101" cy="-461.886" rx="4" ry="4"/>
<polygon fill="#b7373d" stroke="#b7373d" points="504.204,-333.862 500.439,-323.562 500.711,-330.284 497.219,-326.706 497.219,-326.706 497.219,-326.706 500.711,-330.284 493.999,-329.849 504.204,-333.862 504.204,-333.862"/>
</g>
<!-- Review -->
<g id="node20" class="node"><title>Review</title>
<ellipse fill="none" stroke="black" cx="339" cy="-164" rx="37.8943" ry="18"/>
<text text-anchor="middle" x="339" y="-160.3" font-family="Times,serif" font-size="14.00">Review</text>
</g>
<!-- Center&#45;&gt;Review -->
<g id="edge25" class="edge"><title>Center&#45;&gt;Review</title>
<path fill="none" stroke="#a55c8d" d="M500.444,-481.635C436.143,-478.855 318.002,-470.733 283,-448 276.431,-443.734 211.137,-335.535 209,-328 204.635,-312.607 202.791,-306.746 209,-292 228.978,-244.554 276.297,-205.999 307.991,-184.274"/>
<ellipse fill="none" stroke="#a55c8d" cx="504.771" cy="-481.813" rx="4" ry="4"/>
<polygon fill="#a55c8d" stroke="#a55c8d" points="308.166,-184.157 318.981,-182.34 312.323,-181.378 316.48,-178.599 316.48,-178.599 316.48,-178.599 312.323,-181.378 313.979,-174.858 308.166,-184.157 308.166,-184.157"/>
</g>
<!-- Report -->
<g id="node21" class="node"><title>Report</title>
<ellipse fill="none" stroke="black" cx="311" cy="-18" rx="34.394" ry="18"/>
<text text-anchor="middle" x="311" y="-14.3" font-family="Times,serif" font-size="14.00">Report</text>
</g>
<!-- Center&#45;&gt;Report -->
<g id="edge27" class="edge"><title>Center&#45;&gt;Report</title>
<path fill="none" stroke="#e97548" d="M499.976,-483.2C384.423,-481.266 76,-458.796 76,-274 76,-274 76,-274 76,-90 76,-50.4745 199.36,-30.9529 267.325,-23.197"/>
<ellipse fill="none" stroke="#e97548" cx="504.281" cy="-483.256" rx="4" ry="4"/>
<polygon fill="#e97548" stroke="#e97548" points="267.39,-23.1899 277.823,-26.5673 272.36,-22.6422 277.33,-22.0944 277.33,-22.0944 277.33,-22.0944 272.36,-22.6422 276.837,-17.6215 267.39,-23.1899 267.39,-23.1899"/>
</g>
<!-- Center&#45;&gt;Branch -->
<g id="edge20" class="edge"><title>Center&#45;&gt;Branch</title>
<path fill="none" stroke="#0d48c9" d="M508.582,-469.001C468.541,-450.696 404.088,-414.527 374,-361 356.885,-330.552 347.587,-291.074 342.963,-265.164"/>
<ellipse fill="none" stroke="#0d48c9" cx="512.595" cy="-470.792" rx="4.00002" ry="4.00002"/>
<polygon fill="#0d48c9" stroke="#0d48c9" points="342.96,-265.149 345.748,-254.544 342.135,-260.218 341.309,-255.287 341.309,-255.287 341.309,-255.287 342.135,-260.218 336.871,-256.03 342.96,-265.149 342.96,-265.149"/>
</g>
<!-- Center&#45;&gt;Branch -->
<g id="edge22" class="edge"><title>Center&#45;&gt;Branch</title>
<path fill="none" stroke="#e57431" d="M520.026,-462.598C494.431,-439.305 452.512,-399.439 421,-361 394.916,-329.182 369.344,-288.979 353.872,-263.371"/>
<ellipse fill="none" stroke="#e57431" cx="523.199" cy="-465.468" rx="4.00002" ry="4.00002"/>
<polygon fill="#e57431" stroke="#e57431" points="353.781,-263.22 352.508,-252.328 351.214,-258.93 348.646,-254.639 348.646,-254.639 348.646,-254.639 351.214,-258.93 344.785,-256.95 353.781,-263.22 353.781,-263.22"/>
<text text-anchor="middle" x="465" y="-349.8" font-family="Times,serif" font-size="14.00">active_branches</text>
</g>
<!-- CenterCategory -->
<g id="node24" class="node"><title>CenterCategory</title>
<ellipse fill="none" stroke="black" cx="913" cy="-557" rx="66.0889" ry="18"/>
<text text-anchor="middle" x="913" y="-553.3" font-family="Times,serif" font-size="14.00">CenterCategory</text>
</g>
<!-- Center&#45;&gt;CenterCategory -->
<g id="edge21" class="edge"><title>Center&#45;&gt;CenterCategory</title>
<path fill="none" stroke="#218c5d" d="M583.592,-491.979C648.677,-503.901 776.454,-528.351 852.365,-543.346"/>
<ellipse fill="none" stroke="#218c5d" cx="579.529" cy="-491.238" rx="4.00001" ry="4.00001"/>
<polygon fill="#218c5d" stroke="#218c5d" points="852.393,-543.351 861.328,-549.708 857.298,-544.322 862.203,-545.294 862.203,-545.294 862.203,-545.294 857.298,-544.322 863.077,-540.879 852.393,-543.351 852.393,-543.351"/>
</g>
<!-- User -->
<g id="node25" class="node"><title>User</title>
<ellipse fill="none" stroke="black" cx="747" cy="-397" rx="27.0966" ry="18"/>
<text text-anchor="middle" x="747" y="-393.3" font-family="Times,serif" font-size="14.00">User</text>
</g>
<!-- Center&#45;&gt;User -->
<g id="edge29" class="edge"><title>Center&#45;&gt;User</title>
<path fill="none" stroke="#00c1df" d="M587.04,-479.72C635.125,-475.292 708.086,-465.817 729,-448 735.79,-442.215 740.019,-433.668 742.652,-425.27"/>
<polygon fill="#00c1df" stroke="#00c1df" points="586.849,-479.737 576.493,-476.132 581.869,-480.176 576.888,-480.615 576.888,-480.615 576.888,-480.615 581.869,-480.176 577.283,-485.098 586.849,-479.737 586.849,-479.737"/>
<polygon fill="#00c1df" stroke="#00c1df" points="742.72,-424.999 749.505,-416.384 743.929,-420.147 745.139,-415.296 745.139,-415.296 745.139,-415.296 743.929,-420.147 740.772,-414.207 742.72,-424.999 742.72,-424.999"/>
<text text-anchor="middle" x="765.5" y="-436.8" font-family="Times,serif" font-size="14.00">managers</text>
</g>
<!-- Review&#45;&gt;Vote -->
<g id="edge32" class="edge"><title>Review&#45;&gt;Vote</title>
<path fill="none" stroke="#53a509" d="M348.62,-138.606C351.233,-131.982 354.071,-124.783 356.719,-118.07"/>
<ellipse fill="none" stroke="#53a509" cx="347.103" cy="-142.453" rx="4.00001" ry="4.00001"/>
<polygon fill="#53a509" stroke="#53a509" points="356.743,-118.008 364.598,-110.356 358.578,-113.357 360.412,-108.705 360.412,-108.705 360.412,-108.705 358.578,-113.357 356.226,-107.054 356.743,-118.008 356.743,-118.008"/>
</g>
<!-- Review&#45;&gt;Report -->
<g id="edge33" class="edge"><title>Review&#45;&gt;Report</title>
<path fill="none" stroke="#5a6c94" d="M334.107,-137.838C329.117,-112.172 321.398,-72.4773 316.274,-46.1235"/>
<ellipse fill="none" stroke="#5a6c94" cx="334.915" cy="-141.989" rx="4.00001" ry="4.00001"/>
<polygon fill="#5a6c94" stroke="#5a6c94" points="316.226,-45.8781 318.735,-35.203 315.272,-40.97 314.318,-36.0619 314.318,-36.0619 314.318,-36.0619 315.272,-40.97 309.9,-36.9209 316.226,-45.8781 316.226,-45.8781"/>
</g>
<!-- Comment -->
<g id="node22" class="node"><title>Comment</title>
<ellipse fill="none" stroke="black" cx="905" cy="-91" rx="46.2923" ry="18"/>
<text text-anchor="middle" x="905" y="-87.3" font-family="Times,serif" font-size="14.00">Comment</text>
</g>
<!-- Review&#45;&gt;Comment -->
<g id="edge31" class="edge"><title>Review&#45;&gt;Comment</title>
<path fill="none" stroke="#ef08f2" d="M383.218,-157.453C486.026,-144.557 740.813,-112.596 851.851,-98.6671"/>
<ellipse fill="none" stroke="#ef08f2" cx="379.236" cy="-157.953" rx="4.00001" ry="4.00001"/>
<polygon fill="#ef08f2" stroke="#ef08f2" points="851.899,-98.6611 862.382,-101.881 856.86,-98.0388 861.821,-97.4164 861.821,-97.4164 861.821,-97.4164 856.86,-98.0388 861.261,-92.9514 851.899,-98.6611 851.899,-98.6611"/>
</g>
<!-- Comment&#45;&gt;UserComment -->
<g id="edge6" class="edge"><title>Comment&#45;&gt;UserComment</title>
<path fill="none" stroke="black" d="M909.841,-72.8129C912.986,-61.6499 917.068,-47.1602 920.203,-36.0288"/>
</g>
<!-- Comment&#45;&gt;CenterComment -->
<g id="edge12" class="edge"><title>Comment&#45;&gt;CenterComment</title>
<path fill="none" stroke="black" d="M937.231,-77.9558C970.37,-65.5724 1021.95,-46.2965 1057.04,-33.1833"/>
</g>
<!-- Comment&#45;&gt;Center -->
<g id="edge36" class="edge"><title>Comment&#45;&gt;Center</title>
<path fill="none" stroke="#004a6c" d="M917.484,-116.115C923.319,-129.55 929,-146.793 929,-163 929,-274 929,-274 929,-274 929,-336.744 961.556,-366.296 922,-415 880.161,-466.515 675.237,-479.026 585.371,-482.046"/>
<ellipse fill="none" stroke="#004a6c" cx="915.742" cy="-112.317" rx="4.00002" ry="4.00002"/>
<ellipse fill="#004a6c" stroke="#004a6c" cx="581.297" cy="-482.176" rx="4" ry="4"/>
</g>
<!-- Comment&#45;&gt;Report -->
<g id="edge37" class="edge"><title>Comment&#45;&gt;Report</title>
<path fill="none" stroke="#0cc6ae" d="M869.676,-73.2702C852.883,-66.0789 832.299,-58.342 813,-54 726.492,-34.5371 461.546,-23.9338 355.531,-20.3771"/>
<ellipse fill="none" stroke="#0cc6ae" cx="873.442" cy="-74.9182" rx="4.00002" ry="4.00002"/>
<polygon fill="#0cc6ae" stroke="#0cc6ae" points="355.476,-20.3754 345.63,-15.5476 350.479,-20.2102 345.482,-20.0451 345.482,-20.0451 345.482,-20.0451 350.479,-20.2102 345.333,-24.5427 355.476,-20.3754 355.476,-20.3754"/>
</g>
<!-- Branch&#45;&gt;Review -->
<g id="edge39" class="edge"><title>Branch&#45;&gt;Review</title>
<path fill="none" stroke="#664485" d="M339,-210.791C339,-204.832 339,-198.45 339,-192.399"/>
<ellipse fill="none" stroke="#664485" cx="339" cy="-214.813" rx="4" ry="4"/>
<polygon fill="#664485" stroke="#664485" points="339,-192.029 343.5,-182.029 339,-187.029 339,-182.029 339,-182.029 339,-182.029 339,-187.029 334.5,-182.029 339,-192.029 339,-192.029"/>
</g>
<!-- Branch&#45;&gt;Comment -->
<g id="edge40" class="edge"><title>Branch&#45;&gt;Comment</title>
<path fill="none" stroke="#3c7a6c" d="M378.431,-225.968C479.633,-200.22 748.262,-131.877 857.65,-104.047"/>
<ellipse fill="none" stroke="#3c7a6c" cx="374.52" cy="-226.963" rx="4.00001" ry="4.00001"/>
<polygon fill="#3c7a6c" stroke="#3c7a6c" points="857.728,-104.027 868.529,-105.922 862.574,-102.794 867.42,-101.561 867.42,-101.561 867.42,-101.561 862.574,-102.794 866.31,-97.2 857.728,-104.027 857.728,-104.027"/>
</g>
<!-- CenterCategory&#45;&gt;CourseCategory -->
<g id="edge43" class="edge"><title>CenterCategory&#45;&gt;CourseCategory</title>
<path fill="none" stroke="#85e504" d="M967.997,-542.299C1017.61,-529.94 1090.31,-511.828 1140.64,-499.29"/>
<ellipse fill="none" stroke="#85e504" cx="963.943" cy="-543.309" rx="4.00001" ry="4.00001"/>
<polygon fill="#85e504" stroke="#85e504" points="1140.69,-499.277 1151.48,-501.227 1145.54,-498.069 1150.39,-496.86 1150.39,-496.86 1150.39,-496.86 1145.54,-498.069 1149.3,-492.494 1140.69,-499.277 1140.69,-499.277"/>
</g>
<!-- CenterCategory&#45;&gt;Center -->
<g id="edge42" class="edge"><title>CenterCategory&#45;&gt;Center</title>
<path fill="none" stroke="#95f916" d="M850.67,-545.008C774.742,-530.899 648.791,-506.703 584.053,-493.766"/>
<ellipse fill="none" stroke="#95f916" cx="854.777" cy="-545.769" rx="4.00001" ry="4.00001"/>
<polygon fill="#95f916" stroke="#95f916" points="584.01,-493.757 575.091,-487.377 579.108,-492.773 574.206,-491.789 574.206,-491.789 574.206,-491.789 579.108,-492.773 573.32,-496.201 584.01,-493.757 584.01,-493.757"/>
</g>
<!-- User&#45;&gt;CenterManagement -->
<g id="edge45" class="edge"><title>User&#45;&gt;CenterManagement</title>
<path fill="none" stroke="#d07980" d="M722.615,-378.284C704.224,-364.923 678.919,-346.539 659.406,-332.364"/>
<ellipse fill="none" stroke="#d07980" cx="725.994" cy="-380.739" rx="4.00002" ry="4.00002"/>
<ellipse fill="#d07980" stroke="#d07980" cx="656.003" cy="-329.891" rx="4.00002" ry="4.00002"/>
</g>
<!-- User&#45;&gt;UserComment -->
<g id="edge50" class="edge"><title>User&#45;&gt;UserComment</title>
<path fill="none" stroke="#165dfe" d="M780.779,-388.482C801.278,-382.933 827.373,-374.054 848,-361 890.093,-334.362 1005,-250.814 1005,-201 1005,-201 1005,-201 1005,-90 1005,-67.2939 986.75,-50.0808 967.683,-38.2934"/>
<ellipse fill="none" stroke="#165dfe" cx="776.81" cy="-389.512" rx="4.00001" ry="4.00001"/>
<polygon fill="#165dfe" stroke="#165dfe" points="967.596,-38.2438 961.17,-29.358 963.262,-35.7514 958.927,-33.2591 958.927,-33.2591 958.927,-33.2591 963.262,-35.7514 956.684,-37.1602 967.596,-38.2438 967.596,-38.2438"/>
</g>
<!-- User&#45;&gt;CenterRequest -->
<g id="edge47" class="edge"><title>User&#45;&gt;CenterRequest</title>
<path fill="none" stroke="#b867f7" d="M781.261,-390.118C812.992,-384.237 861.281,-374.177 902,-361 928.297,-352.49 956.838,-340.354 979.148,-330.17"/>
<ellipse fill="none" stroke="#b867f7" cx="777.103" cy="-390.876" rx="4.00001" ry="4.00001"/>
<polygon fill="#b867f7" stroke="#b867f7" points="979.225,-330.134 990.19,-330.026 983.764,-328.038 988.303,-325.941 988.303,-325.941 988.303,-325.941 983.764,-328.038 986.416,-321.856 979.225,-330.134 979.225,-330.134"/>
</g>
<!-- User&#45;&gt;Vote -->
<g id="edge52" class="edge"><title>User&#45;&gt;Vote</title>
<path fill="none" stroke="#35d3a1" d="M756.409,-371.914C757.48,-368.305 758.402,-364.59 759,-361 764.175,-329.948 760.033,-318.474 743,-292 716.238,-250.404 700.831,-245.393 659,-219 572.112,-164.18 457.493,-122.024 401.195,-103.035"/>
<ellipse fill="none" stroke="#35d3a1" cx="755.141" cy="-375.758" rx="4.00001" ry="4.00001"/>
<polygon fill="#35d3a1" stroke="#35d3a1" points="401.189,-103.034 393.128,-95.5993 396.447,-101.451 391.704,-99.8678 391.704,-99.8678 391.704,-99.8678 396.447,-101.451 390.279,-104.136 401.189,-103.034 401.189,-103.034"/>
</g>
<!-- User&#45;&gt;CenterComment -->
<g id="edge51" class="edge"><title>User&#45;&gt;CenterComment</title>
<path fill="none" stroke="#b0da9e" d="M782.301,-395.174C873.34,-392.091 1109,-377.671 1109,-311 1109,-311 1109,-311 1109,-90 1109,-75.2288 1106.05,-59.0499 1102.85,-45.872"/>
<ellipse fill="none" stroke="#b0da9e" cx="778.207" cy="-395.304" rx="4" ry="4"/>
<polygon fill="#b0da9e" stroke="#b0da9e" points="1102.81,-45.7087 1104.65,-34.8977 1101.55,-40.8699 1100.29,-36.031 1100.29,-36.031 1100.29,-36.031 1101.55,-40.8699 1095.94,-37.1643 1102.81,-45.7087 1102.81,-45.7087"/>
</g>
<!-- User&#45;&gt;Notification -->
<g id="edge55" class="edge"><title>User&#45;&gt;Notification</title>
<path fill="none" stroke="#5a9a76" d="M714.628,-385.809C667.397,-370.94 579.289,-343.202 524.645,-325.999"/>
<ellipse fill="none" stroke="#5a9a76" cx="718.748" cy="-387.106" rx="4.00001" ry="4.00001"/>
<polygon fill="#5a9a76" stroke="#5a9a76" points="524.387,-325.918 516.2,-318.623 519.618,-324.417 514.849,-322.915 514.849,-322.915 514.849,-322.915 519.618,-324.417 513.498,-327.208 524.387,-325.918 524.387,-325.918"/>
</g>
<!-- User&#45;&gt;Center -->
<g id="edge46" class="edge"><title>User&#45;&gt;Center</title>
<path fill="none" stroke="#675ae8" d="M714.074,-406.463C691.434,-412.722 660.899,-422.039 635,-433 613.027,-442.299 589.402,-455.206 571.595,-465.577"/>
<ellipse fill="none" stroke="#675ae8" cx="718.175" cy="-405.348" rx="4.00001" ry="4.00001"/>
<ellipse fill="#675ae8" stroke="#675ae8" cx="567.788" cy="-467.818" rx="4.00002" ry="4.00002"/>
<text text-anchor="middle" x="680" y="-436.8" font-family="Times,serif" font-size="14.00">managed_center</text>
</g>
<!-- User&#45;&gt;Review -->
<g id="edge48" class="edge"><title>User&#45;&gt;Review</title>
<path fill="none" stroke="#c41d1b" d="M746.974,-370.859C745.603,-347.557 739.964,-313.364 720,-292 630.705,-196.441 467.713,-172.734 386.965,-166.888"/>
<ellipse fill="none" stroke="#c41d1b" cx="747.141" cy="-374.91" rx="4" ry="4"/>
<polygon fill="#c41d1b" stroke="#c41d1b" points="386.579,-166.863 376.897,-161.714 381.589,-166.534 376.6,-166.204 376.6,-166.204 376.6,-166.204 381.589,-166.534 376.304,-170.694 386.579,-166.863 386.579,-166.863"/>
</g>
<!-- User&#45;&gt;Report -->
<g id="edge53" class="edge"><title>User&#45;&gt;Report</title>
<path fill="none" stroke="#8a5574" d="M765.823,-375.051C768.772,-370.682 771.378,-365.905 773,-361 778.727,-343.688 774.198,-311.482 765,-292 746.327,-252.447 733.271,-246.176 699,-219 583.873,-127.708 420.581,-59.9805 348.114,-32.4873"/>
<ellipse fill="none" stroke="#8a5574" cx="763.385" cy="-378.33" rx="4.00002" ry="4.00002"/>
<polygon fill="#8a5574" stroke="#8a5574" points="347.866,-32.3944 340.088,-24.6642 343.186,-30.6355 338.505,-28.8766 338.505,-28.8766 338.505,-28.8766 343.186,-30.6355 336.922,-33.089 347.866,-32.3944 347.866,-32.3944"/>
</g>
<!-- User&#45;&gt;Comment -->
<g id="edge49" class="edge"><title>User&#45;&gt;Comment</title>
<path fill="none" stroke="#53f04b" d="M780.97,-388.821C797.582,-383.676 816.613,-375.084 829,-361 891.086,-290.406 902.728,-172.615 904.718,-119.481"/>
<ellipse fill="none" stroke="#53f04b" cx="776.896" cy="-389.982" rx="4.00001" ry="4.00001"/>
<polygon fill="#53f04b" stroke="#53f04b" points="904.727,-119.161 909.509,-109.293 904.869,-114.163 905.011,-109.165 905.011,-109.165 905.011,-109.165 904.869,-114.163 900.513,-109.037 904.727,-119.161 904.727,-119.161"/>
</g>
<!-- User&#45;&gt;User -->
<g id="edge54" class="edge"><title>User&#45;&gt;User</title>
<path fill="none" stroke="#18d8b6" d="M780.031,-404.637C787.145,-403.883 792.298,-401.337 792.298,-397 792.298,-393.032 787.984,-390.563 781.803,-389.594"/>
<ellipse fill="none" stroke="#18d8b6" cx="775.694" cy="-404.697" rx="4" ry="4"/>
<polygon fill="#18d8b6" stroke="#18d8b6" points="781.689,-389.591 771.849,-384.751 776.692,-389.419 771.695,-389.248 771.695,-389.248 771.695,-389.248 776.692,-389.419 771.541,-393.745 781.689,-389.591 781.689,-389.591"/>
<text text-anchor="middle" x="852.798" y="-393.3" font-family="Times,serif" font-size="14.00">received_notifications</text>
</g>
<!-- CourseSubCategory&#45;&gt;CourseClassification -->
<g id="edge57" class="edge"><title>CourseSubCategory&#45;&gt;CourseClassification</title>
<path fill="none" stroke="#2c3458" d="M1294,-283.791C1294,-277.832 1294,-271.45 1294,-265.399"/>
<ellipse fill="none" stroke="#2c3458" cx="1294" cy="-287.813" rx="4" ry="4"/>
<polygon fill="#2c3458" stroke="#2c3458" points="1294,-265.029 1298.5,-255.029 1294,-260.029 1294,-255.029 1294,-255.029 1294,-255.029 1294,-260.029 1289.5,-255.029 1294,-265.029 1294,-265.029"/>
</g>
<!-- ApplicationRecord -->
<g id="node27" class="node"><title>ApplicationRecord</title>
<ellipse fill="none" stroke="black" cx="537" cy="-724" rx="77.1866" ry="18"/>
<text text-anchor="middle" x="537" y="-720.3" font-family="Times,serif" font-size="14.00">ApplicationRecord</text>
</g>
<!-- ApplicationRecord&#45;&gt;CourseClassification -->
<g id="edge1" class="edge"><title>ApplicationRecord&#45;&gt;CourseClassification</title>
<path fill="none" stroke="black" d="M565.5,-707.117C581.808,-698.882 602.955,-689.604 623,-685 732.876,-659.762 1017.49,-674.13 1130,-667 1191.07,-663.13 1403,-692.192 1403,-631 1403,-631 1403,-631 1403,-309 1403,-279.415 1374.46,-261.516 1346.58,-251.091"/>
</g>
<!-- ApplicationRecord&#45;&gt;CenterManagement -->
<g id="edge5" class="edge"><title>ApplicationRecord&#45;&gt;CenterManagement</title>
<path fill="none" stroke="black" d="M559.266,-706.672C579.097,-690.071 605,-662.381 605,-631 605,-631 605,-631 605,-483 605,-425.969 618.626,-359.398 625.759,-328.458"/>
</g>
<!-- ApplicationRecord&#45;&gt;CenterRequest -->
<g id="edge7" class="edge"><title>ApplicationRecord&#45;&gt;CenterRequest</title>
<path fill="none" stroke="black" d="M565.518,-707.192C581.831,-698.98 602.977,-689.701 623,-685 666.095,-674.881 990.413,-699.001 1021,-667 1112.82,-570.938 1049,-385.13 1026.2,-328.077"/>
</g>
<!-- ApplicationRecord&#45;&gt;Course -->
<g id="edge10" class="edge"><title>ApplicationRecord&#45;&gt;Course</title>
<path fill="none" stroke="black" d="M565.511,-707.161C581.822,-698.94 602.968,-689.662 623,-685 717.447,-663.019 968.561,-701.989 1059,-667 1082.25,-658.007 1102,-655.925 1102,-631 1102,-631 1102,-631 1102,-483 1102,-449.381 1135.65,-424.113 1160.1,-410.192"/>
</g>
<!-- ApplicationRecord&#45;&gt;Vote -->
<g id="edge11" class="edge"><title>ApplicationRecord&#45;&gt;Vote</title>
<path fill="none" stroke="black" d="M508.073,-707.081C491.807,-698.943 470.838,-689.772 451,-685 361.008,-663.355 38,-723.559 38,-631 38,-631 38,-631 38,-273 38,-135.935 259.916,-101.923 339.233,-94.1434"/>
</g>
<!-- ApplicationRecord&#45;&gt;District -->
<g id="edge14" class="edge"><title>ApplicationRecord&#45;&gt;District</title>
<path fill="none" stroke="black" d="M508.017,-707.307C491.734,-699.238 470.767,-690.06 451,-685 392.356,-669.989 184,-691.535 184,-631 184,-631 184,-631 184,-439.5 184,-393.877 218.712,-349.23 239.594,-326.5"/>
</g>
<!-- ApplicationRecord&#45;&gt;City -->
<g id="edge17" class="edge"><title>ApplicationRecord&#45;&gt;City</title>
<path fill="none" stroke="black" d="M505.258,-707.416C489.248,-699.958 469.373,-691.304 451,-685 357.402,-652.886 235,-729.955 235,-631 235,-631 235,-631 235,-483 235,-448.55 270.278,-422.37 293.981,-408.669"/>
</g>
<!-- ApplicationRecord&#45;&gt;Notification -->
<g id="edge18" class="edge"><title>ApplicationRecord&#45;&gt;Notification</title>
<path fill="none" stroke="black" d="M518.973,-706.189C502.602,-689.02 481,-660.731 481,-631 481,-631 481,-631 481,-483 481,-422.085 491.83,-406.531 485,-346 484.329,-340.054 483.036,-333.646 481.683,-327.958"/>
</g>
<!-- ApplicationRecord&#45;&gt;Center -->
<g id="edge30" class="edge"><title>ApplicationRecord&#45;&gt;Center</title>
<path fill="none" stroke="black" d="M537.432,-705.884C538.536,-662.077 541.455,-546.267 542.564,-502.281"/>
</g>
<!-- ApplicationRecord&#45;&gt;Review -->
<g id="edge34" class="edge"><title>ApplicationRecord&#45;&gt;Review</title>
<path fill="none" stroke="black" d="M508.051,-707.169C491.779,-699.058 470.811,-689.884 451,-685 374.803,-666.217 102,-709.478 102,-631 102,-631 102,-631 102,-396 102,-299.694 152.821,-280.42 227,-219 251.441,-198.763 284.743,-183.961 308.67,-175.026"/>
</g>
<!-- ApplicationRecord&#45;&gt;Report -->
<g id="edge35" class="edge"><title>ApplicationRecord&#45;&gt;Report</title>
<path fill="none" stroke="black" d="M508.481,-707.198C492.167,-698.989 471.021,-689.71 451,-685 366.33,-665.083 143.269,-692.14 60,-667 30.2289,-658.012 0,-662.098 0,-631 0,-631 0,-631 0,-90 0,-33.7871 195.557,-22.0796 276.529,-19.6413"/>
</g>
<!-- ApplicationRecord&#45;&gt;Comment -->
<g id="edge38" class="edge"><title>ApplicationRecord&#45;&gt;Comment</title>
<path fill="none" stroke="black" d="M566.384,-707.149C582.614,-699.139 603.403,-690.065 623,-685 709.409,-662.668 737.717,-693.306 823,-667 960.985,-624.437 1009.79,-582.24 1063,-448 1088.93,-382.587 1115.66,-357.52 1090,-292 1085.48,-280.466 964.463,-153.868 920.647,-108.257"/>
</g>
<!-- ApplicationRecord&#45;&gt;Branch -->
<g id="edge41" class="edge"><title>ApplicationRecord&#45;&gt;Branch</title>
<path fill="none" stroke="black" d="M508.026,-707.269C491.747,-699.188 470.779,-690.011 451,-685 384.276,-668.096 146,-699.832 146,-631 146,-631 146,-631 146,-439.5 146,-368.215 158.343,-342.154 209,-292 235.571,-265.692 276.817,-251.542 305.705,-244.414"/>
</g>
<!-- ApplicationRecord&#45;&gt;User -->
<g id="edge56" class="edge"><title>ApplicationRecord&#45;&gt;User</title>
<path fill="none" stroke="black" d="M569.212,-707.416C585.168,-700.047 604.857,-691.468 623,-685 708.11,-654.658 819,-721.357 819,-631 819,-631 819,-631 819,-483 819,-458.539 811.586,-451.852 796,-433 788.14,-423.493 777.115,-415.314 767.513,-409.258"/>
</g>
<!-- Category -->
<g id="node28" class="node"><title>Category</title>
<ellipse fill="none" stroke="black" cx="1179" cy="-630" rx="42.7926" ry="18"/>
<text text-anchor="middle" x="1179" y="-626.3" font-family="Times,serif" font-size="14.00">Category</text>
</g>
<!-- ApplicationRecord&#45;&gt;Category -->
<g id="edge60" class="edge"><title>ApplicationRecord&#45;&gt;Category</title>
<path fill="none" stroke="black" d="M565.502,-707.124C581.811,-698.892 602.957,-689.614 623,-685 729.834,-660.404 1010.58,-697.067 1116,-667 1131.26,-662.647 1146.76,-653.858 1158.57,-646.054"/>
</g>
<!-- Category&#45;&gt;CourseCategory -->
<g id="edge4" class="edge"><title>Category&#45;&gt;CourseCategory</title>
<path fill="none" stroke="black" d="M1181.25,-611.916C1184.91,-584.202 1192.09,-529.762 1195.75,-502.062"/>
</g>
<!-- Category&#45;&gt;CenterCategory -->
<g id="edge44" class="edge"><title>Category&#45;&gt;CenterCategory</title>
<path fill="none" stroke="black" d="M1143.68,-619.572C1096.05,-606.86 1011.18,-584.207 958.733,-570.207"/>
</g>
<!-- Category&#45;&gt;CourseSubCategory -->
<g id="edge58" class="edge"><title>Category&#45;&gt;CourseSubCategory</title>
<path fill="none" stroke="black" d="M1217.29,-621.886C1250.75,-613.196 1294,-594.838 1294,-558 1294,-558 1294,-558 1294,-396 1294,-372.536 1294,-345.43 1294,-328.256"/>
</g>
<!-- Category&#45;&gt;Category -->
<g id="edge59" class="edge"><title>Category&#45;&gt;Category</title>
<path fill="none" stroke="#ced05d" d="M1227.12,-636.201C1234.71,-635.284 1239.9,-633.217 1239.9,-630 1239.9,-627.051 1235.54,-625.069 1228.96,-624.052"/>
<ellipse fill="none" stroke="#ced05d" cx="1222.82" cy="-636.478" rx="4" ry="4"/>
<polygon fill="#ced05d" stroke="#ced05d" points="1228.8,-624.039 1219.18,-618.778 1223.81,-623.652 1218.83,-623.265 1218.83,-623.265 1218.83,-623.265 1223.81,-623.652 1218.48,-627.751 1228.8,-624.039 1228.8,-624.039"/>
<text text-anchor="middle" x="1284.4" y="-626.3" font-family="Times,serif" font-size="14.00">child_categories</text>
</g>
</g>
</svg>
